<mxfile host="app.diagrams.net" modified="2023-05-15T04:31:31.156Z" agent="Mozilla/5.0 (Windows NT 10.0; Win64; x64) AppleWebKit/537.36 (KHTML, like Gecko) Chrome/113.0.0.0 Safari/537.36" etag="_SMoOoX3cPt8W_QGxDJ3" version="21.2.9" type="github">
  <diagram name="Page-1" id="uqLHdu-c0-q_K8qMQnKW">
    <mxGraphModel dx="1909" dy="2373" grid="1" gridSize="10" guides="1" tooltips="1" connect="1" arrows="1" fold="1" page="1" pageScale="1" pageWidth="850" pageHeight="1100" math="0" shadow="0">
      <root>
        <mxCell id="0" />
        <mxCell id="1" parent="0" />
        <mxCell id="swk3lTgOJP5RNjHqExLe-25" value="" style="shape=table;startSize=0;container=1;collapsible=0;childLayout=tableLayout;" parent="1" vertex="1">
          <mxGeometry x="140" y="390" width="512" height="40" as="geometry" />
        </mxCell>
        <mxCell id="swk3lTgOJP5RNjHqExLe-26" value="" style="shape=tableRow;horizontal=0;startSize=0;swimlaneHead=0;swimlaneBody=0;strokeColor=inherit;top=0;left=0;bottom=0;right=0;collapsible=0;dropTarget=0;fillColor=none;points=[[0,0.5],[1,0.5]];portConstraint=eastwest;" parent="swk3lTgOJP5RNjHqExLe-25" vertex="1">
          <mxGeometry width="512" height="40" as="geometry" />
        </mxCell>
        <mxCell id="swk3lTgOJP5RNjHqExLe-27" value="SupName&lt;span style=&quot;white-space: pre;&quot;&gt; &lt;/span&gt;" style="shape=partialRectangle;html=1;whiteSpace=wrap;connectable=0;strokeColor=inherit;overflow=hidden;fillColor=none;top=0;left=0;bottom=0;right=0;pointerEvents=1;" parent="swk3lTgOJP5RNjHqExLe-26" vertex="1">
          <mxGeometry width="103" height="40" as="geometry">
            <mxRectangle width="103" height="40" as="alternateBounds" />
          </mxGeometry>
        </mxCell>
        <mxCell id="swk3lTgOJP5RNjHqExLe-28" value="Phone" style="shape=partialRectangle;html=1;whiteSpace=wrap;connectable=0;strokeColor=inherit;overflow=hidden;fillColor=none;top=0;left=0;bottom=0;right=0;pointerEvents=1;" parent="swk3lTgOJP5RNjHqExLe-26" vertex="1">
          <mxGeometry x="103" width="102" height="40" as="geometry">
            <mxRectangle width="102" height="40" as="alternateBounds" />
          </mxGeometry>
        </mxCell>
        <mxCell id="swk3lTgOJP5RNjHqExLe-29" value="OpenHours" style="shape=partialRectangle;html=1;whiteSpace=wrap;connectable=0;strokeColor=inherit;overflow=hidden;fillColor=none;top=0;left=0;bottom=0;right=0;pointerEvents=1;" parent="swk3lTgOJP5RNjHqExLe-26" vertex="1">
          <mxGeometry x="205" width="103" height="40" as="geometry">
            <mxRectangle width="103" height="40" as="alternateBounds" />
          </mxGeometry>
        </mxCell>
        <mxCell id="swk3lTgOJP5RNjHqExLe-30" value="&lt;u&gt;SupplierID&lt;/u&gt;" style="shape=partialRectangle;html=1;whiteSpace=wrap;connectable=0;strokeColor=inherit;overflow=hidden;fillColor=none;top=0;left=0;bottom=0;right=0;pointerEvents=1;" parent="swk3lTgOJP5RNjHqExLe-26" vertex="1">
          <mxGeometry x="308" width="102" height="40" as="geometry">
            <mxRectangle width="102" height="40" as="alternateBounds" />
          </mxGeometry>
        </mxCell>
        <mxCell id="g5Xw9p57KfW_CXl-FN91-55" value="Email" style="shape=partialRectangle;html=1;whiteSpace=wrap;connectable=0;strokeColor=inherit;overflow=hidden;fillColor=none;top=0;left=0;bottom=0;right=0;pointerEvents=1;" vertex="1" parent="swk3lTgOJP5RNjHqExLe-26">
          <mxGeometry x="410" width="102" height="40" as="geometry">
            <mxRectangle width="102" height="40" as="alternateBounds" />
          </mxGeometry>
        </mxCell>
        <mxCell id="swk3lTgOJP5RNjHqExLe-32" value="Supplier" style="text;html=1;align=center;verticalAlign=middle;resizable=0;points=[];autosize=1;strokeColor=none;fillColor=none;" parent="1" vertex="1">
          <mxGeometry x="146.5" y="350" width="70" height="30" as="geometry" />
        </mxCell>
        <mxCell id="g5Xw9p57KfW_CXl-FN91-11" value="" style="shape=table;startSize=0;container=1;collapsible=0;childLayout=tableLayout;" vertex="1" parent="1">
          <mxGeometry x="140" y="480" width="425" height="40" as="geometry" />
        </mxCell>
        <mxCell id="g5Xw9p57KfW_CXl-FN91-12" value="" style="shape=tableRow;horizontal=0;startSize=0;swimlaneHead=0;swimlaneBody=0;strokeColor=inherit;top=0;left=0;bottom=0;right=0;collapsible=0;dropTarget=0;fillColor=none;points=[[0,0.5],[1,0.5]];portConstraint=eastwest;" vertex="1" parent="g5Xw9p57KfW_CXl-FN91-11">
          <mxGeometry width="425" height="40" as="geometry" />
        </mxCell>
        <mxCell id="g5Xw9p57KfW_CXl-FN91-13" value="OpenHours&lt;span style=&quot;white-space: pre;&quot;&gt; &lt;/span&gt;" style="shape=partialRectangle;html=1;whiteSpace=wrap;connectable=0;strokeColor=inherit;overflow=hidden;fillColor=none;top=0;left=0;bottom=0;right=0;pointerEvents=1;" vertex="1" parent="g5Xw9p57KfW_CXl-FN91-12">
          <mxGeometry width="85" height="40" as="geometry">
            <mxRectangle width="85" height="40" as="alternateBounds" />
          </mxGeometry>
        </mxCell>
        <mxCell id="g5Xw9p57KfW_CXl-FN91-14" value="StoreName" style="shape=partialRectangle;html=1;whiteSpace=wrap;connectable=0;strokeColor=inherit;overflow=hidden;fillColor=none;top=0;left=0;bottom=0;right=0;pointerEvents=1;" vertex="1" parent="g5Xw9p57KfW_CXl-FN91-12">
          <mxGeometry x="85" width="85" height="40" as="geometry">
            <mxRectangle width="85" height="40" as="alternateBounds" />
          </mxGeometry>
        </mxCell>
        <mxCell id="g5Xw9p57KfW_CXl-FN91-15" value="Phone" style="shape=partialRectangle;html=1;whiteSpace=wrap;connectable=0;strokeColor=inherit;overflow=hidden;fillColor=none;top=0;left=0;bottom=0;right=0;pointerEvents=1;" vertex="1" parent="g5Xw9p57KfW_CXl-FN91-12">
          <mxGeometry x="170" width="85" height="40" as="geometry">
            <mxRectangle width="85" height="40" as="alternateBounds" />
          </mxGeometry>
        </mxCell>
        <mxCell id="g5Xw9p57KfW_CXl-FN91-16" value="&lt;u&gt;StoreID&lt;/u&gt;" style="shape=partialRectangle;html=1;whiteSpace=wrap;connectable=0;strokeColor=inherit;overflow=hidden;fillColor=none;top=0;left=0;bottom=0;right=0;pointerEvents=1;" vertex="1" parent="g5Xw9p57KfW_CXl-FN91-12">
          <mxGeometry x="255" width="85" height="40" as="geometry">
            <mxRectangle width="85" height="40" as="alternateBounds" />
          </mxGeometry>
        </mxCell>
        <mxCell id="g5Xw9p57KfW_CXl-FN91-22" value="AddressID" style="shape=partialRectangle;html=1;whiteSpace=wrap;connectable=0;strokeColor=inherit;overflow=hidden;fillColor=none;top=0;left=0;bottom=0;right=0;pointerEvents=1;" vertex="1" parent="g5Xw9p57KfW_CXl-FN91-12">
          <mxGeometry x="340" width="85" height="40" as="geometry">
            <mxRectangle width="85" height="40" as="alternateBounds" />
          </mxGeometry>
        </mxCell>
        <mxCell id="g5Xw9p57KfW_CXl-FN91-7" value="Store" style="shape=partialRectangle;html=1;whiteSpace=wrap;connectable=0;strokeColor=inherit;overflow=hidden;fillColor=none;top=0;left=0;bottom=0;right=0;pointerEvents=1;" vertex="1" parent="1">
          <mxGeometry x="140" y="440" width="103" height="40" as="geometry">
            <mxRectangle width="103" height="40" as="alternateBounds" />
          </mxGeometry>
        </mxCell>
        <mxCell id="g5Xw9p57KfW_CXl-FN91-23" value="" style="shape=table;startSize=0;container=1;collapsible=0;childLayout=tableLayout;" vertex="1" parent="1">
          <mxGeometry x="140" y="590" width="500" height="40" as="geometry" />
        </mxCell>
        <mxCell id="g5Xw9p57KfW_CXl-FN91-24" value="" style="shape=tableRow;horizontal=0;startSize=0;swimlaneHead=0;swimlaneBody=0;strokeColor=inherit;top=0;left=0;bottom=0;right=0;collapsible=0;dropTarget=0;fillColor=none;points=[[0,0.5],[1,0.5]];portConstraint=eastwest;" vertex="1" parent="g5Xw9p57KfW_CXl-FN91-23">
          <mxGeometry width="500" height="40" as="geometry" />
        </mxCell>
        <mxCell id="g5Xw9p57KfW_CXl-FN91-25" value="AddressLine1&lt;span style=&quot;white-space: pre;&quot;&gt; &lt;/span&gt;" style="shape=partialRectangle;html=1;whiteSpace=wrap;connectable=0;strokeColor=inherit;overflow=hidden;fillColor=none;top=0;left=0;bottom=0;right=0;pointerEvents=1;" vertex="1" parent="g5Xw9p57KfW_CXl-FN91-24">
          <mxGeometry width="83" height="40" as="geometry">
            <mxRectangle width="83" height="40" as="alternateBounds" />
          </mxGeometry>
        </mxCell>
        <mxCell id="g5Xw9p57KfW_CXl-FN91-26" value="AddressLine2" style="shape=partialRectangle;html=1;whiteSpace=wrap;connectable=0;strokeColor=inherit;overflow=hidden;fillColor=none;top=0;left=0;bottom=0;right=0;pointerEvents=1;" vertex="1" parent="g5Xw9p57KfW_CXl-FN91-24">
          <mxGeometry x="83" width="84" height="40" as="geometry">
            <mxRectangle width="84" height="40" as="alternateBounds" />
          </mxGeometry>
        </mxCell>
        <mxCell id="g5Xw9p57KfW_CXl-FN91-27" value="Suburb" style="shape=partialRectangle;html=1;whiteSpace=wrap;connectable=0;strokeColor=inherit;overflow=hidden;fillColor=none;top=0;left=0;bottom=0;right=0;pointerEvents=1;" vertex="1" parent="g5Xw9p57KfW_CXl-FN91-24">
          <mxGeometry x="167" width="83" height="40" as="geometry">
            <mxRectangle width="83" height="40" as="alternateBounds" />
          </mxGeometry>
        </mxCell>
        <mxCell id="g5Xw9p57KfW_CXl-FN91-28" value="City" style="shape=partialRectangle;html=1;whiteSpace=wrap;connectable=0;strokeColor=inherit;overflow=hidden;fillColor=none;top=0;left=0;bottom=0;right=0;pointerEvents=1;" vertex="1" parent="g5Xw9p57KfW_CXl-FN91-24">
          <mxGeometry x="250" width="83" height="40" as="geometry">
            <mxRectangle width="83" height="40" as="alternateBounds" />
          </mxGeometry>
        </mxCell>
        <mxCell id="g5Xw9p57KfW_CXl-FN91-29" value="PostCode" style="shape=partialRectangle;html=1;whiteSpace=wrap;connectable=0;strokeColor=inherit;overflow=hidden;fillColor=none;top=0;left=0;bottom=0;right=0;pointerEvents=1;" vertex="1" parent="g5Xw9p57KfW_CXl-FN91-24">
          <mxGeometry x="333" width="84" height="40" as="geometry">
            <mxRectangle width="84" height="40" as="alternateBounds" />
          </mxGeometry>
        </mxCell>
        <mxCell id="g5Xw9p57KfW_CXl-FN91-30" value="&lt;u&gt;AddressID&lt;/u&gt;" style="shape=partialRectangle;html=1;whiteSpace=wrap;connectable=0;strokeColor=inherit;overflow=hidden;fillColor=none;top=0;left=0;bottom=0;right=0;pointerEvents=1;" vertex="1" parent="g5Xw9p57KfW_CXl-FN91-24">
          <mxGeometry x="417" width="83" height="40" as="geometry">
            <mxRectangle width="83" height="40" as="alternateBounds" />
          </mxGeometry>
        </mxCell>
        <mxCell id="g5Xw9p57KfW_CXl-FN91-31" value="Address" style="shape=partialRectangle;html=1;whiteSpace=wrap;connectable=0;strokeColor=inherit;overflow=hidden;fillColor=none;top=0;left=0;bottom=0;right=0;pointerEvents=1;" vertex="1" parent="1">
          <mxGeometry x="125" y="550" width="103" height="40" as="geometry">
            <mxRectangle width="103" height="40" as="alternateBounds" />
          </mxGeometry>
        </mxCell>
        <mxCell id="g5Xw9p57KfW_CXl-FN91-34" style="edgeStyle=orthogonalEdgeStyle;rounded=0;orthogonalLoop=1;jettySize=auto;html=1;entryX=0.966;entryY=-0.025;entryDx=0;entryDy=0;entryPerimeter=0;exitX=0.899;exitY=1.05;exitDx=0;exitDy=0;exitPerimeter=0;" edge="1" parent="1" source="g5Xw9p57KfW_CXl-FN91-12" target="g5Xw9p57KfW_CXl-FN91-24">
          <mxGeometry relative="1" as="geometry">
            <mxPoint x="620" y="580" as="targetPoint" />
            <Array as="points">
              <mxPoint x="522" y="550" />
              <mxPoint x="623" y="550" />
            </Array>
          </mxGeometry>
        </mxCell>
        <mxCell id="g5Xw9p57KfW_CXl-FN91-139" style="edgeStyle=orthogonalEdgeStyle;rounded=0;orthogonalLoop=1;jettySize=auto;html=1;exitX=0.694;exitY=-0.027;exitDx=0;exitDy=0;exitPerimeter=0;" edge="1" parent="1" source="g5Xw9p57KfW_CXl-FN91-36">
          <mxGeometry relative="1" as="geometry">
            <mxPoint x="430" y="530" as="targetPoint" />
            <Array as="points">
              <mxPoint x="684" y="560" />
              <mxPoint x="430" y="560" />
            </Array>
          </mxGeometry>
        </mxCell>
        <mxCell id="g5Xw9p57KfW_CXl-FN91-141" style="edgeStyle=orthogonalEdgeStyle;rounded=0;orthogonalLoop=1;jettySize=auto;html=1;exitX=0.449;exitY=0.018;exitDx=0;exitDy=0;exitPerimeter=0;entryX=0.893;entryY=1.076;entryDx=0;entryDy=0;entryPerimeter=0;" edge="1" parent="1" source="g5Xw9p57KfW_CXl-FN91-36" target="g5Xw9p57KfW_CXl-FN91-90">
          <mxGeometry relative="1" as="geometry">
            <mxPoint x="360" y="260" as="targetPoint" />
            <Array as="points">
              <mxPoint x="492" y="680" />
              <mxPoint x="850" y="680" />
              <mxPoint x="850" y="260" />
              <mxPoint x="354" y="260" />
            </Array>
          </mxGeometry>
        </mxCell>
        <mxCell id="g5Xw9p57KfW_CXl-FN91-35" value="" style="shape=table;startSize=0;container=1;collapsible=0;childLayout=tableLayout;" vertex="1" parent="1">
          <mxGeometry x="140" y="700" width="784" height="40" as="geometry" />
        </mxCell>
        <mxCell id="g5Xw9p57KfW_CXl-FN91-36" value="" style="shape=tableRow;horizontal=0;startSize=0;swimlaneHead=0;swimlaneBody=0;strokeColor=inherit;top=0;left=0;bottom=0;right=0;collapsible=0;dropTarget=0;fillColor=none;points=[[0,0.5],[1,0.5]];portConstraint=eastwest;" vertex="1" parent="g5Xw9p57KfW_CXl-FN91-35">
          <mxGeometry width="784" height="40" as="geometry" />
        </mxCell>
        <mxCell id="g5Xw9p57KfW_CXl-FN91-37" value="OrderDate" style="shape=partialRectangle;html=1;whiteSpace=wrap;connectable=0;strokeColor=inherit;overflow=hidden;fillColor=none;top=0;left=0;bottom=0;right=0;pointerEvents=1;" vertex="1" parent="g5Xw9p57KfW_CXl-FN91-36">
          <mxGeometry width="98" height="40" as="geometry">
            <mxRectangle width="98" height="40" as="alternateBounds" />
          </mxGeometry>
        </mxCell>
        <mxCell id="g5Xw9p57KfW_CXl-FN91-38" value="OrderTotal" style="shape=partialRectangle;html=1;whiteSpace=wrap;connectable=0;strokeColor=inherit;overflow=hidden;fillColor=none;top=0;left=0;bottom=0;right=0;pointerEvents=1;" vertex="1" parent="g5Xw9p57KfW_CXl-FN91-36">
          <mxGeometry x="98" width="98" height="40" as="geometry">
            <mxRectangle width="98" height="40" as="alternateBounds" />
          </mxGeometry>
        </mxCell>
        <mxCell id="g5Xw9p57KfW_CXl-FN91-39" value="PhoneNumber" style="shape=partialRectangle;html=1;whiteSpace=wrap;connectable=0;strokeColor=inherit;overflow=hidden;fillColor=none;top=0;left=0;bottom=0;right=0;pointerEvents=1;" vertex="1" parent="g5Xw9p57KfW_CXl-FN91-36">
          <mxGeometry x="196" width="98" height="40" as="geometry">
            <mxRectangle width="98" height="40" as="alternateBounds" />
          </mxGeometry>
        </mxCell>
        <mxCell id="g5Xw9p57KfW_CXl-FN91-40" value="Email" style="shape=partialRectangle;html=1;whiteSpace=wrap;connectable=0;strokeColor=inherit;overflow=hidden;fillColor=none;top=0;left=0;bottom=0;right=0;pointerEvents=1;" vertex="1" parent="g5Xw9p57KfW_CXl-FN91-36">
          <mxGeometry x="294" width="98" height="40" as="geometry">
            <mxRectangle width="98" height="40" as="alternateBounds" />
          </mxGeometry>
        </mxCell>
        <mxCell id="g5Xw9p57KfW_CXl-FN91-41" value="&lt;u&gt;OrderNumber&lt;/u&gt;" style="shape=partialRectangle;html=1;whiteSpace=wrap;connectable=0;strokeColor=inherit;overflow=hidden;fillColor=none;top=0;left=0;bottom=0;right=0;pointerEvents=1;" vertex="1" parent="g5Xw9p57KfW_CXl-FN91-36">
          <mxGeometry x="392" width="98" height="40" as="geometry">
            <mxRectangle width="98" height="40" as="alternateBounds" />
          </mxGeometry>
        </mxCell>
        <mxCell id="g5Xw9p57KfW_CXl-FN91-43" value="StoreID" style="shape=partialRectangle;html=1;whiteSpace=wrap;connectable=0;strokeColor=inherit;overflow=hidden;fillColor=none;top=0;left=0;bottom=0;right=0;pointerEvents=1;" vertex="1" parent="g5Xw9p57KfW_CXl-FN91-36">
          <mxGeometry x="490" width="98" height="40" as="geometry">
            <mxRectangle width="98" height="40" as="alternateBounds" />
          </mxGeometry>
        </mxCell>
        <mxCell id="g5Xw9p57KfW_CXl-FN91-134" value="CardNum" style="shape=partialRectangle;html=1;whiteSpace=wrap;connectable=0;strokeColor=inherit;overflow=hidden;fillColor=none;top=0;left=0;bottom=0;right=0;pointerEvents=1;" vertex="1" parent="g5Xw9p57KfW_CXl-FN91-36">
          <mxGeometry x="588" width="98" height="40" as="geometry">
            <mxRectangle width="98" height="40" as="alternateBounds" />
          </mxGeometry>
        </mxCell>
        <mxCell id="g5Xw9p57KfW_CXl-FN91-138" value="AddressID" style="shape=partialRectangle;html=1;whiteSpace=wrap;connectable=0;strokeColor=inherit;overflow=hidden;fillColor=none;top=0;left=0;bottom=0;right=0;pointerEvents=1;" vertex="1" parent="g5Xw9p57KfW_CXl-FN91-36">
          <mxGeometry x="686" width="98" height="40" as="geometry">
            <mxRectangle width="98" height="40" as="alternateBounds" />
          </mxGeometry>
        </mxCell>
        <mxCell id="g5Xw9p57KfW_CXl-FN91-42" value="Order" style="shape=partialRectangle;html=1;whiteSpace=wrap;connectable=0;strokeColor=inherit;overflow=hidden;fillColor=none;top=0;left=0;bottom=0;right=0;pointerEvents=1;" vertex="1" parent="1">
          <mxGeometry x="130" y="660" width="103" height="40" as="geometry">
            <mxRectangle width="103" height="40" as="alternateBounds" />
          </mxGeometry>
        </mxCell>
        <mxCell id="g5Xw9p57KfW_CXl-FN91-53" style="edgeStyle=orthogonalEdgeStyle;rounded=0;orthogonalLoop=1;jettySize=auto;html=1;entryX=0.713;entryY=1.125;entryDx=0;entryDy=0;entryPerimeter=0;exitX=0.54;exitY=-0.05;exitDx=0;exitDy=0;exitPerimeter=0;" edge="1" parent="1" source="g5Xw9p57KfW_CXl-FN91-46" target="g5Xw9p57KfW_CXl-FN91-12">
          <mxGeometry relative="1" as="geometry">
            <Array as="points">
              <mxPoint x="426" y="780" />
              <mxPoint x="930" y="780" />
              <mxPoint x="930" y="570" />
              <mxPoint x="443" y="570" />
            </Array>
          </mxGeometry>
        </mxCell>
        <mxCell id="g5Xw9p57KfW_CXl-FN91-45" value="" style="shape=table;startSize=0;container=1;collapsible=0;childLayout=tableLayout;" vertex="1" parent="1">
          <mxGeometry x="140" y="800" width="530" height="40" as="geometry" />
        </mxCell>
        <mxCell id="g5Xw9p57KfW_CXl-FN91-46" value="" style="shape=tableRow;horizontal=0;startSize=0;swimlaneHead=0;swimlaneBody=0;strokeColor=inherit;top=0;left=0;bottom=0;right=0;collapsible=0;dropTarget=0;fillColor=none;points=[[0,0.5],[1,0.5]];portConstraint=eastwest;" vertex="1" parent="g5Xw9p57KfW_CXl-FN91-45">
          <mxGeometry width="530" height="40" as="geometry" />
        </mxCell>
        <mxCell id="g5Xw9p57KfW_CXl-FN91-47" value="&lt;u&gt;SupplierID&lt;/u&gt;" style="shape=partialRectangle;html=1;whiteSpace=wrap;connectable=0;strokeColor=inherit;overflow=hidden;fillColor=none;top=0;left=0;bottom=0;right=0;pointerEvents=1;" vertex="1" parent="g5Xw9p57KfW_CXl-FN91-46">
          <mxGeometry width="177" height="40" as="geometry">
            <mxRectangle width="177" height="40" as="alternateBounds" />
          </mxGeometry>
        </mxCell>
        <mxCell id="g5Xw9p57KfW_CXl-FN91-48" value="&lt;u&gt;StoreID&lt;/u&gt;" style="shape=partialRectangle;html=1;whiteSpace=wrap;connectable=0;strokeColor=inherit;overflow=hidden;fillColor=none;top=0;left=0;bottom=0;right=0;pointerEvents=1;" vertex="1" parent="g5Xw9p57KfW_CXl-FN91-46">
          <mxGeometry x="177" width="176" height="40" as="geometry">
            <mxRectangle width="176" height="40" as="alternateBounds" />
          </mxGeometry>
        </mxCell>
        <mxCell id="g5Xw9p57KfW_CXl-FN91-49" value="&lt;u&gt;Barcode&lt;/u&gt;" style="shape=partialRectangle;html=1;whiteSpace=wrap;connectable=0;strokeColor=inherit;overflow=hidden;fillColor=none;top=0;left=0;bottom=0;right=0;pointerEvents=1;" vertex="1" parent="g5Xw9p57KfW_CXl-FN91-46">
          <mxGeometry x="353" width="177" height="40" as="geometry">
            <mxRectangle width="177" height="40" as="alternateBounds" />
          </mxGeometry>
        </mxCell>
        <mxCell id="g5Xw9p57KfW_CXl-FN91-50" value="Supplies" style="shape=partialRectangle;html=1;whiteSpace=wrap;connectable=0;strokeColor=inherit;overflow=hidden;fillColor=none;top=0;left=0;bottom=0;right=0;pointerEvents=1;" vertex="1" parent="1">
          <mxGeometry x="125" y="760" width="103" height="40" as="geometry">
            <mxRectangle width="103" height="40" as="alternateBounds" />
          </mxGeometry>
        </mxCell>
        <mxCell id="g5Xw9p57KfW_CXl-FN91-52" style="edgeStyle=orthogonalEdgeStyle;rounded=0;orthogonalLoop=1;jettySize=auto;html=1;exitX=0.864;exitY=1.075;exitDx=0;exitDy=0;exitPerimeter=0;" edge="1" parent="1" source="g5Xw9p57KfW_CXl-FN91-46">
          <mxGeometry relative="1" as="geometry">
            <mxPoint x="630" y="953" as="targetPoint" />
          </mxGeometry>
        </mxCell>
        <mxCell id="g5Xw9p57KfW_CXl-FN91-54" style="edgeStyle=orthogonalEdgeStyle;rounded=0;orthogonalLoop=1;jettySize=auto;html=1;" edge="1" parent="1" source="g5Xw9p57KfW_CXl-FN91-46">
          <mxGeometry relative="1" as="geometry">
            <mxPoint x="510" y="440" as="targetPoint" />
            <Array as="points">
              <mxPoint x="230" y="770" />
              <mxPoint x="950" y="770" />
              <mxPoint x="950" y="470" />
              <mxPoint x="511" y="470" />
              <mxPoint x="511" y="440" />
            </Array>
          </mxGeometry>
        </mxCell>
        <mxCell id="g5Xw9p57KfW_CXl-FN91-57" value="Product" style="text;html=1;strokeColor=none;fillColor=none;align=center;verticalAlign=middle;whiteSpace=wrap;rounded=0;" vertex="1" parent="1">
          <mxGeometry x="164" y="910" width="60" height="30" as="geometry" />
        </mxCell>
        <mxCell id="g5Xw9p57KfW_CXl-FN91-58" value="" style="shape=table;startSize=0;container=1;collapsible=0;childLayout=tableLayout;fontSize=16;" vertex="1" parent="1">
          <mxGeometry x="164" y="960" width="506" height="40" as="geometry" />
        </mxCell>
        <mxCell id="g5Xw9p57KfW_CXl-FN91-59" value="" style="shape=tableRow;horizontal=0;startSize=0;swimlaneHead=0;swimlaneBody=0;strokeColor=inherit;top=0;left=0;bottom=0;right=0;collapsible=0;dropTarget=0;fillColor=none;points=[[0,0.5],[1,0.5]];portConstraint=eastwest;fontSize=16;" vertex="1" parent="g5Xw9p57KfW_CXl-FN91-58">
          <mxGeometry width="506" height="40" as="geometry" />
        </mxCell>
        <mxCell id="g5Xw9p57KfW_CXl-FN91-60" value="Amount in stock" style="shape=partialRectangle;html=1;whiteSpace=wrap;connectable=0;strokeColor=inherit;overflow=hidden;fillColor=none;top=0;left=0;bottom=0;right=0;pointerEvents=1;fontSize=16;" vertex="1" parent="g5Xw9p57KfW_CXl-FN91-59">
          <mxGeometry width="101" height="40" as="geometry">
            <mxRectangle width="101" height="40" as="alternateBounds" />
          </mxGeometry>
        </mxCell>
        <mxCell id="g5Xw9p57KfW_CXl-FN91-61" value="Name" style="shape=partialRectangle;html=1;whiteSpace=wrap;connectable=0;strokeColor=inherit;overflow=hidden;fillColor=none;top=0;left=0;bottom=0;right=0;pointerEvents=1;fontSize=16;" vertex="1" parent="g5Xw9p57KfW_CXl-FN91-59">
          <mxGeometry x="101" width="101" height="40" as="geometry">
            <mxRectangle width="101" height="40" as="alternateBounds" />
          </mxGeometry>
        </mxCell>
        <mxCell id="g5Xw9p57KfW_CXl-FN91-62" value="Use by date" style="shape=partialRectangle;html=1;whiteSpace=wrap;connectable=0;strokeColor=inherit;overflow=hidden;fillColor=none;top=0;left=0;bottom=0;right=0;pointerEvents=1;fontSize=16;" vertex="1" parent="g5Xw9p57KfW_CXl-FN91-59">
          <mxGeometry x="202" width="101" height="40" as="geometry">
            <mxRectangle width="101" height="40" as="alternateBounds" />
          </mxGeometry>
        </mxCell>
        <mxCell id="g5Xw9p57KfW_CXl-FN91-63" value="Cost per unit" style="shape=partialRectangle;html=1;whiteSpace=wrap;connectable=0;strokeColor=inherit;overflow=hidden;fillColor=none;top=0;left=0;bottom=0;right=0;pointerEvents=1;fontSize=16;fontStyle=0" vertex="1" parent="g5Xw9p57KfW_CXl-FN91-59">
          <mxGeometry x="303" width="102" height="40" as="geometry">
            <mxRectangle width="102" height="40" as="alternateBounds" />
          </mxGeometry>
        </mxCell>
        <mxCell id="g5Xw9p57KfW_CXl-FN91-64" value="Barcode" style="shape=partialRectangle;html=1;whiteSpace=wrap;connectable=0;strokeColor=inherit;overflow=hidden;fillColor=none;top=0;left=0;bottom=0;right=0;pointerEvents=1;fontSize=16;fontStyle=4" vertex="1" parent="g5Xw9p57KfW_CXl-FN91-59">
          <mxGeometry x="405" width="101" height="40" as="geometry">
            <mxRectangle width="101" height="40" as="alternateBounds" />
          </mxGeometry>
        </mxCell>
        <mxCell id="g5Xw9p57KfW_CXl-FN91-73" value="Promotion" style="text;html=1;strokeColor=none;fillColor=none;align=center;verticalAlign=middle;whiteSpace=wrap;rounded=0;" vertex="1" parent="1">
          <mxGeometry x="140" y="1030" width="60" height="30" as="geometry" />
        </mxCell>
        <mxCell id="g5Xw9p57KfW_CXl-FN91-132" style="edgeStyle=orthogonalEdgeStyle;rounded=0;orthogonalLoop=1;jettySize=auto;html=1;exitX=0.948;exitY=0.063;exitDx=0;exitDy=0;exitPerimeter=0;" edge="1" parent="1" source="g5Xw9p57KfW_CXl-FN91-75">
          <mxGeometry relative="1" as="geometry">
            <mxPoint x="610" y="1020" as="targetPoint" />
          </mxGeometry>
        </mxCell>
        <mxCell id="g5Xw9p57KfW_CXl-FN91-74" value="" style="shape=table;startSize=0;container=1;collapsible=0;childLayout=tableLayout;fontSize=16;" vertex="1" parent="1">
          <mxGeometry x="140" y="1080" width="758" height="40" as="geometry" />
        </mxCell>
        <mxCell id="g5Xw9p57KfW_CXl-FN91-75" value="" style="shape=tableRow;horizontal=0;startSize=0;swimlaneHead=0;swimlaneBody=0;strokeColor=inherit;top=0;left=0;bottom=0;right=0;collapsible=0;dropTarget=0;fillColor=none;points=[[0,0.5],[1,0.5]];portConstraint=eastwest;fontSize=16;" vertex="1" parent="g5Xw9p57KfW_CXl-FN91-74">
          <mxGeometry width="758" height="40" as="geometry" />
        </mxCell>
        <mxCell id="g5Xw9p57KfW_CXl-FN91-76" value="Promotion code" style="shape=partialRectangle;html=1;whiteSpace=wrap;connectable=0;strokeColor=inherit;overflow=hidden;fillColor=none;top=0;left=0;bottom=0;right=0;pointerEvents=1;fontSize=16;fontStyle=4" vertex="1" parent="g5Xw9p57KfW_CXl-FN91-75">
          <mxGeometry width="101" height="40" as="geometry">
            <mxRectangle width="101" height="40" as="alternateBounds" />
          </mxGeometry>
        </mxCell>
        <mxCell id="g5Xw9p57KfW_CXl-FN91-77" value="Product Code" style="shape=partialRectangle;html=1;whiteSpace=wrap;connectable=0;strokeColor=inherit;overflow=hidden;fillColor=none;top=0;left=0;bottom=0;right=0;pointerEvents=1;fontSize=16;" vertex="1" parent="g5Xw9p57KfW_CXl-FN91-75">
          <mxGeometry x="101" width="101" height="40" as="geometry">
            <mxRectangle width="101" height="40" as="alternateBounds" />
          </mxGeometry>
        </mxCell>
        <mxCell id="g5Xw9p57KfW_CXl-FN91-78" value="Discount percentage" style="shape=partialRectangle;html=1;whiteSpace=wrap;connectable=0;strokeColor=inherit;overflow=hidden;fillColor=none;top=0;left=0;bottom=0;right=0;pointerEvents=1;fontSize=16;" vertex="1" parent="g5Xw9p57KfW_CXl-FN91-75">
          <mxGeometry x="202" width="101" height="40" as="geometry">
            <mxRectangle width="101" height="40" as="alternateBounds" />
          </mxGeometry>
        </mxCell>
        <mxCell id="g5Xw9p57KfW_CXl-FN91-79" value="Promotion description" style="shape=partialRectangle;html=1;whiteSpace=wrap;connectable=0;strokeColor=inherit;overflow=hidden;fillColor=none;top=0;left=0;bottom=0;right=0;pointerEvents=1;fontSize=16;fontStyle=0" vertex="1" parent="g5Xw9p57KfW_CXl-FN91-75">
          <mxGeometry x="303" width="102" height="40" as="geometry">
            <mxRectangle width="102" height="40" as="alternateBounds" />
          </mxGeometry>
        </mxCell>
        <mxCell id="g5Xw9p57KfW_CXl-FN91-80" value="Promotion start date" style="shape=partialRectangle;html=1;whiteSpace=wrap;connectable=0;strokeColor=inherit;overflow=hidden;fillColor=none;top=0;left=0;bottom=0;right=0;pointerEvents=1;fontSize=16;fontStyle=0" vertex="1" parent="g5Xw9p57KfW_CXl-FN91-75">
          <mxGeometry x="405" width="101" height="40" as="geometry">
            <mxRectangle width="101" height="40" as="alternateBounds" />
          </mxGeometry>
        </mxCell>
        <mxCell id="g5Xw9p57KfW_CXl-FN91-81" value="Promotion length" style="shape=partialRectangle;html=1;whiteSpace=wrap;connectable=0;strokeColor=inherit;overflow=hidden;fillColor=none;top=0;left=0;bottom=0;right=0;pointerEvents=1;fontSize=16;fontStyle=0" vertex="1" parent="g5Xw9p57KfW_CXl-FN91-75">
          <mxGeometry x="506" width="84" height="40" as="geometry">
            <mxRectangle width="84" height="40" as="alternateBounds" />
          </mxGeometry>
        </mxCell>
        <mxCell id="g5Xw9p57KfW_CXl-FN91-82" value="Promotion active" style="shape=partialRectangle;html=1;whiteSpace=wrap;connectable=0;strokeColor=inherit;overflow=hidden;fillColor=none;top=0;left=0;bottom=0;right=0;pointerEvents=1;fontSize=16;fontStyle=0" vertex="1" parent="g5Xw9p57KfW_CXl-FN91-75">
          <mxGeometry x="590" width="84" height="40" as="geometry">
            <mxRectangle width="84" height="40" as="alternateBounds" />
          </mxGeometry>
        </mxCell>
        <mxCell id="g5Xw9p57KfW_CXl-FN91-131" value="&lt;u&gt;PBarcode&lt;/u&gt;" style="shape=partialRectangle;html=1;whiteSpace=wrap;connectable=0;strokeColor=inherit;overflow=hidden;fillColor=none;top=0;left=0;bottom=0;right=0;pointerEvents=1;fontSize=16;fontStyle=0" vertex="1" parent="g5Xw9p57KfW_CXl-FN91-75">
          <mxGeometry x="674" width="84" height="40" as="geometry">
            <mxRectangle width="84" height="40" as="alternateBounds" />
          </mxGeometry>
        </mxCell>
        <mxCell id="g5Xw9p57KfW_CXl-FN91-84" value="Recipe" style="text;html=1;strokeColor=none;fillColor=none;align=center;verticalAlign=middle;whiteSpace=wrap;rounded=0;" vertex="1" parent="1">
          <mxGeometry x="130" y="1180" width="60" height="30" as="geometry" />
        </mxCell>
        <mxCell id="g5Xw9p57KfW_CXl-FN91-85" value="" style="shape=table;startSize=0;container=1;collapsible=0;childLayout=tableLayout;fontSize=16;" vertex="1" parent="1">
          <mxGeometry x="130" y="1220" width="235" height="40" as="geometry" />
        </mxCell>
        <mxCell id="g5Xw9p57KfW_CXl-FN91-86" value="" style="shape=tableRow;horizontal=0;startSize=0;swimlaneHead=0;swimlaneBody=0;strokeColor=inherit;top=0;left=0;bottom=0;right=0;collapsible=0;dropTarget=0;fillColor=none;points=[[0,0.5],[1,0.5]];portConstraint=eastwest;fontSize=16;" vertex="1" parent="g5Xw9p57KfW_CXl-FN91-85">
          <mxGeometry width="235" height="40" as="geometry" />
        </mxCell>
        <mxCell id="g5Xw9p57KfW_CXl-FN91-87" value="Name" style="shape=partialRectangle;html=1;whiteSpace=wrap;connectable=0;strokeColor=inherit;overflow=hidden;fillColor=none;top=0;left=0;bottom=0;right=0;pointerEvents=1;fontSize=16;fontStyle=4" vertex="1" parent="g5Xw9p57KfW_CXl-FN91-86">
          <mxGeometry width="118" height="40" as="geometry">
            <mxRectangle width="118" height="40" as="alternateBounds" />
          </mxGeometry>
        </mxCell>
        <mxCell id="g5Xw9p57KfW_CXl-FN91-88" value="Instruction" style="shape=partialRectangle;html=1;whiteSpace=wrap;connectable=0;strokeColor=inherit;overflow=hidden;fillColor=none;top=0;left=0;bottom=0;right=0;pointerEvents=1;fontSize=16;" vertex="1" parent="g5Xw9p57KfW_CXl-FN91-86">
          <mxGeometry x="118" width="117" height="40" as="geometry">
            <mxRectangle width="117" height="40" as="alternateBounds" />
          </mxGeometry>
        </mxCell>
        <mxCell id="g5Xw9p57KfW_CXl-FN91-89" value="" style="shape=table;startSize=0;container=1;collapsible=0;childLayout=tableLayout;fontSize=16;" vertex="1" parent="1">
          <mxGeometry x="140" y="200" width="240" height="40" as="geometry" />
        </mxCell>
        <mxCell id="g5Xw9p57KfW_CXl-FN91-90" value="" style="shape=tableRow;horizontal=0;startSize=0;swimlaneHead=0;swimlaneBody=0;strokeColor=inherit;top=0;left=0;bottom=0;right=0;collapsible=0;dropTarget=0;fillColor=none;points=[[0,0.5],[1,0.5]];portConstraint=eastwest;fontSize=16;" vertex="1" parent="g5Xw9p57KfW_CXl-FN91-89">
          <mxGeometry width="240" height="40" as="geometry" />
        </mxCell>
        <mxCell id="g5Xw9p57KfW_CXl-FN91-91" value="Phone number" style="shape=partialRectangle;html=1;whiteSpace=wrap;connectable=0;strokeColor=inherit;overflow=hidden;fillColor=none;top=0;left=0;bottom=0;right=0;pointerEvents=1;fontSize=16;" vertex="1" parent="g5Xw9p57KfW_CXl-FN91-90">
          <mxGeometry width="60" height="40" as="geometry">
            <mxRectangle width="60" height="40" as="alternateBounds" />
          </mxGeometry>
        </mxCell>
        <mxCell id="g5Xw9p57KfW_CXl-FN91-92" value="First name" style="shape=partialRectangle;html=1;whiteSpace=wrap;connectable=0;strokeColor=inherit;overflow=hidden;fillColor=none;top=0;left=0;bottom=0;right=0;pointerEvents=1;fontSize=16;" vertex="1" parent="g5Xw9p57KfW_CXl-FN91-90">
          <mxGeometry x="60" width="60" height="40" as="geometry">
            <mxRectangle width="60" height="40" as="alternateBounds" />
          </mxGeometry>
        </mxCell>
        <mxCell id="g5Xw9p57KfW_CXl-FN91-93" value="Last name" style="shape=partialRectangle;html=1;whiteSpace=wrap;connectable=0;strokeColor=inherit;overflow=hidden;fillColor=none;top=0;left=0;bottom=0;right=0;pointerEvents=1;fontSize=16;" vertex="1" parent="g5Xw9p57KfW_CXl-FN91-90">
          <mxGeometry x="120" width="60" height="40" as="geometry">
            <mxRectangle width="60" height="40" as="alternateBounds" />
          </mxGeometry>
        </mxCell>
        <mxCell id="g5Xw9p57KfW_CXl-FN91-94" value="Email" style="shape=partialRectangle;html=1;whiteSpace=wrap;connectable=0;strokeColor=inherit;overflow=hidden;fillColor=none;top=0;left=0;bottom=0;right=0;pointerEvents=1;fontSize=16;fontStyle=4" vertex="1" parent="g5Xw9p57KfW_CXl-FN91-90">
          <mxGeometry x="180" width="60" height="40" as="geometry">
            <mxRectangle width="60" height="40" as="alternateBounds" />
          </mxGeometry>
        </mxCell>
        <mxCell id="g5Xw9p57KfW_CXl-FN91-95" value="Customer" style="text;html=1;strokeColor=none;fillColor=none;align=center;verticalAlign=middle;whiteSpace=wrap;rounded=0;" vertex="1" parent="1">
          <mxGeometry x="150" y="160" width="60" height="30" as="geometry" />
        </mxCell>
        <mxCell id="g5Xw9p57KfW_CXl-FN91-96" value="Payment method" style="text;html=1;strokeColor=none;fillColor=none;align=center;verticalAlign=middle;whiteSpace=wrap;rounded=0;" vertex="1" parent="1">
          <mxGeometry x="150" y="260" width="60" height="30" as="geometry" />
        </mxCell>
        <mxCell id="g5Xw9p57KfW_CXl-FN91-97" value="" style="shape=table;startSize=0;container=1;collapsible=0;childLayout=tableLayout;fontSize=16;fontStyle=0" vertex="1" parent="1">
          <mxGeometry x="140" y="300" width="657" height="40" as="geometry" />
        </mxCell>
        <mxCell id="g5Xw9p57KfW_CXl-FN91-98" value="" style="shape=tableRow;horizontal=0;startSize=0;swimlaneHead=0;swimlaneBody=0;strokeColor=inherit;top=0;left=0;bottom=0;right=0;collapsible=0;dropTarget=0;fillColor=none;points=[[0,0.5],[1,0.5]];portConstraint=eastwest;fontSize=16;" vertex="1" parent="g5Xw9p57KfW_CXl-FN91-97">
          <mxGeometry width="657" height="40" as="geometry" />
        </mxCell>
        <mxCell id="g5Xw9p57KfW_CXl-FN91-99" value="Billing address" style="shape=partialRectangle;html=1;whiteSpace=wrap;connectable=0;strokeColor=inherit;overflow=hidden;fillColor=none;top=0;left=0;bottom=0;right=0;pointerEvents=1;fontSize=16;" vertex="1" parent="g5Xw9p57KfW_CXl-FN91-98">
          <mxGeometry width="93" height="40" as="geometry">
            <mxRectangle width="93" height="40" as="alternateBounds" />
          </mxGeometry>
        </mxCell>
        <mxCell id="g5Xw9p57KfW_CXl-FN91-100" value="Name on card" style="shape=partialRectangle;html=1;whiteSpace=wrap;connectable=0;strokeColor=inherit;overflow=hidden;fillColor=none;top=0;left=0;bottom=0;right=0;pointerEvents=1;fontSize=16;" vertex="1" parent="g5Xw9p57KfW_CXl-FN91-98">
          <mxGeometry x="93" width="96" height="40" as="geometry">
            <mxRectangle width="96" height="40" as="alternateBounds" />
          </mxGeometry>
        </mxCell>
        <mxCell id="g5Xw9p57KfW_CXl-FN91-101" value="Expiration date" style="shape=partialRectangle;html=1;whiteSpace=wrap;connectable=0;strokeColor=inherit;overflow=hidden;fillColor=none;top=0;left=0;bottom=0;right=0;pointerEvents=1;fontSize=16;" vertex="1" parent="g5Xw9p57KfW_CXl-FN91-98">
          <mxGeometry x="189" width="93" height="40" as="geometry">
            <mxRectangle width="93" height="40" as="alternateBounds" />
          </mxGeometry>
        </mxCell>
        <mxCell id="g5Xw9p57KfW_CXl-FN91-102" value="CVV" style="shape=partialRectangle;html=1;whiteSpace=wrap;connectable=0;strokeColor=inherit;overflow=hidden;fillColor=none;top=0;left=0;bottom=0;right=0;pointerEvents=1;fontSize=16;fontStyle=0" vertex="1" parent="g5Xw9p57KfW_CXl-FN91-98">
          <mxGeometry x="282" width="93" height="40" as="geometry">
            <mxRectangle width="93" height="40" as="alternateBounds" />
          </mxGeometry>
        </mxCell>
        <mxCell id="g5Xw9p57KfW_CXl-FN91-103" value="Credit card number" style="shape=partialRectangle;html=1;whiteSpace=wrap;connectable=0;strokeColor=inherit;overflow=hidden;fillColor=none;top=0;left=0;bottom=0;right=0;pointerEvents=1;fontSize=16;fontStyle=4" vertex="1" parent="g5Xw9p57KfW_CXl-FN91-98">
          <mxGeometry x="375" width="93" height="40" as="geometry">
            <mxRectangle width="93" height="40" as="alternateBounds" />
          </mxGeometry>
        </mxCell>
        <mxCell id="g5Xw9p57KfW_CXl-FN91-104" value="Payment method fees" style="shape=partialRectangle;html=1;whiteSpace=wrap;connectable=0;strokeColor=inherit;overflow=hidden;fillColor=none;top=0;left=0;bottom=0;right=0;pointerEvents=1;fontSize=16;fontStyle=0" vertex="1" parent="g5Xw9p57KfW_CXl-FN91-98">
          <mxGeometry x="468" width="96" height="40" as="geometry">
            <mxRectangle width="96" height="40" as="alternateBounds" />
          </mxGeometry>
        </mxCell>
        <mxCell id="g5Xw9p57KfW_CXl-FN91-105" value="Payment type" style="shape=partialRectangle;html=1;whiteSpace=wrap;connectable=0;strokeColor=inherit;overflow=hidden;fillColor=none;top=0;left=0;bottom=0;right=0;pointerEvents=1;fontSize=16;fontStyle=4" vertex="1" parent="g5Xw9p57KfW_CXl-FN91-98">
          <mxGeometry x="564" width="93" height="40" as="geometry">
            <mxRectangle width="93" height="40" as="alternateBounds" />
          </mxGeometry>
        </mxCell>
        <mxCell id="g5Xw9p57KfW_CXl-FN91-117" style="edgeStyle=orthogonalEdgeStyle;rounded=0;orthogonalLoop=1;jettySize=auto;html=1;entryX=0.248;entryY=1.031;entryDx=0;entryDy=0;entryPerimeter=0;" edge="1" parent="1" source="g5Xw9p57KfW_CXl-FN91-110" target="g5Xw9p57KfW_CXl-FN91-86">
          <mxGeometry relative="1" as="geometry">
            <mxPoint x="190" y="1280" as="targetPoint" />
            <Array as="points">
              <mxPoint x="306" y="1285" />
              <mxPoint x="210" y="1285" />
              <mxPoint x="210" y="1270" />
              <mxPoint x="188" y="1270" />
            </Array>
          </mxGeometry>
        </mxCell>
        <mxCell id="g5Xw9p57KfW_CXl-FN91-110" value="" style="shape=table;startSize=0;container=1;collapsible=0;childLayout=tableLayout;fontSize=16;" vertex="1" parent="1">
          <mxGeometry x="136.5" y="1340" width="352" height="40" as="geometry" />
        </mxCell>
        <mxCell id="g5Xw9p57KfW_CXl-FN91-111" value="" style="shape=tableRow;horizontal=0;startSize=0;swimlaneHead=0;swimlaneBody=0;strokeColor=inherit;top=0;left=0;bottom=0;right=0;collapsible=0;dropTarget=0;fillColor=none;points=[[0,0.5],[1,0.5]];portConstraint=eastwest;fontSize=16;" vertex="1" parent="g5Xw9p57KfW_CXl-FN91-110">
          <mxGeometry width="352" height="40" as="geometry" />
        </mxCell>
        <mxCell id="g5Xw9p57KfW_CXl-FN91-112" value="ProductName" style="shape=partialRectangle;html=1;whiteSpace=wrap;connectable=0;strokeColor=inherit;overflow=hidden;fillColor=none;top=0;left=0;bottom=0;right=0;pointerEvents=1;fontSize=16;fontStyle=4" vertex="1" parent="g5Xw9p57KfW_CXl-FN91-111">
          <mxGeometry width="118" height="40" as="geometry">
            <mxRectangle width="118" height="40" as="alternateBounds" />
          </mxGeometry>
        </mxCell>
        <mxCell id="g5Xw9p57KfW_CXl-FN91-113" value="&lt;u&gt;RecipeName&lt;/u&gt;" style="shape=partialRectangle;html=1;whiteSpace=wrap;connectable=0;strokeColor=inherit;overflow=hidden;fillColor=none;top=0;left=0;bottom=0;right=0;pointerEvents=1;fontSize=16;" vertex="1" parent="g5Xw9p57KfW_CXl-FN91-111">
          <mxGeometry x="118" width="117" height="40" as="geometry">
            <mxRectangle width="117" height="40" as="alternateBounds" />
          </mxGeometry>
        </mxCell>
        <mxCell id="g5Xw9p57KfW_CXl-FN91-116" value="Quantity" style="shape=partialRectangle;html=1;whiteSpace=wrap;connectable=0;strokeColor=inherit;overflow=hidden;fillColor=none;top=0;left=0;bottom=0;right=0;pointerEvents=1;fontSize=16;" vertex="1" parent="g5Xw9p57KfW_CXl-FN91-111">
          <mxGeometry x="235" width="117" height="40" as="geometry">
            <mxRectangle width="117" height="40" as="alternateBounds" />
          </mxGeometry>
        </mxCell>
        <mxCell id="g5Xw9p57KfW_CXl-FN91-118" value="Ingredient" style="text;html=1;strokeColor=none;fillColor=none;align=center;verticalAlign=middle;whiteSpace=wrap;rounded=0;" vertex="1" parent="1">
          <mxGeometry x="136.5" y="1310" width="60" height="30" as="geometry" />
        </mxCell>
        <mxCell id="g5Xw9p57KfW_CXl-FN91-136" style="edgeStyle=orthogonalEdgeStyle;rounded=0;orthogonalLoop=1;jettySize=auto;html=1;entryX=0.637;entryY=1.313;entryDx=0;entryDy=0;entryPerimeter=0;" edge="1" parent="1" target="g5Xw9p57KfW_CXl-FN91-98">
          <mxGeometry relative="1" as="geometry">
            <mxPoint x="780" y="701" as="sourcePoint" />
            <Array as="points">
              <mxPoint x="780" y="690" />
              <mxPoint x="817" y="690" />
              <mxPoint x="817" y="353" />
            </Array>
          </mxGeometry>
        </mxCell>
        <mxCell id="g5Xw9p57KfW_CXl-FN91-140" style="edgeStyle=orthogonalEdgeStyle;rounded=0;orthogonalLoop=1;jettySize=auto;html=1;exitX=0.941;exitY=-0.04;exitDx=0;exitDy=0;exitPerimeter=0;" edge="1" parent="1" source="g5Xw9p57KfW_CXl-FN91-36">
          <mxGeometry relative="1" as="geometry">
            <mxPoint x="610" y="640" as="targetPoint" />
            <Array as="points">
              <mxPoint x="880" y="698" />
              <mxPoint x="880" y="670" />
              <mxPoint x="610" y="670" />
            </Array>
          </mxGeometry>
        </mxCell>
        <mxCell id="g5Xw9p57KfW_CXl-FN91-142" value="" style="shape=table;startSize=0;container=1;collapsible=0;childLayout=tableLayout;fontSize=16;" vertex="1" parent="1">
          <mxGeometry x="140" y="1450" width="235" height="40" as="geometry" />
        </mxCell>
        <mxCell id="g5Xw9p57KfW_CXl-FN91-143" value="" style="shape=tableRow;horizontal=0;startSize=0;swimlaneHead=0;swimlaneBody=0;strokeColor=inherit;top=0;left=0;bottom=0;right=0;collapsible=0;dropTarget=0;fillColor=none;points=[[0,0.5],[1,0.5]];portConstraint=eastwest;fontSize=16;" vertex="1" parent="g5Xw9p57KfW_CXl-FN91-142">
          <mxGeometry width="235" height="40" as="geometry" />
        </mxCell>
        <mxCell id="g5Xw9p57KfW_CXl-FN91-144" value="Barcode" style="shape=partialRectangle;html=1;whiteSpace=wrap;connectable=0;strokeColor=inherit;overflow=hidden;fillColor=none;top=0;left=0;bottom=0;right=0;pointerEvents=1;fontSize=16;fontStyle=4" vertex="1" parent="g5Xw9p57KfW_CXl-FN91-143">
          <mxGeometry width="118" height="40" as="geometry">
            <mxRectangle width="118" height="40" as="alternateBounds" />
          </mxGeometry>
        </mxCell>
        <mxCell id="g5Xw9p57KfW_CXl-FN91-145" value="&lt;u&gt;OrderNumber&lt;/u&gt;" style="shape=partialRectangle;html=1;whiteSpace=wrap;connectable=0;strokeColor=inherit;overflow=hidden;fillColor=none;top=0;left=0;bottom=0;right=0;pointerEvents=1;fontSize=16;" vertex="1" parent="g5Xw9p57KfW_CXl-FN91-143">
          <mxGeometry x="118" width="117" height="40" as="geometry">
            <mxRectangle width="117" height="40" as="alternateBounds" />
          </mxGeometry>
        </mxCell>
        <mxCell id="g5Xw9p57KfW_CXl-FN91-147" value="Contains" style="text;html=1;strokeColor=none;fillColor=none;align=center;verticalAlign=middle;whiteSpace=wrap;rounded=0;" vertex="1" parent="1">
          <mxGeometry x="140" y="1420" width="60" height="30" as="geometry" />
        </mxCell>
        <mxCell id="g5Xw9p57KfW_CXl-FN91-149" style="edgeStyle=orthogonalEdgeStyle;rounded=0;orthogonalLoop=1;jettySize=auto;html=1;entryX=0.911;entryY=1.047;entryDx=0;entryDy=0;entryPerimeter=0;exitX=0.287;exitY=-0.026;exitDx=0;exitDy=0;exitPerimeter=0;" edge="1" parent="1" source="g5Xw9p57KfW_CXl-FN91-143" target="g5Xw9p57KfW_CXl-FN91-59">
          <mxGeometry relative="1" as="geometry">
            <Array as="points">
              <mxPoint x="207" y="1420" />
              <mxPoint x="940" y="1420" />
              <mxPoint x="940" y="1030" />
              <mxPoint x="625" y="1030" />
            </Array>
          </mxGeometry>
        </mxCell>
        <mxCell id="g5Xw9p57KfW_CXl-FN91-150" style="edgeStyle=orthogonalEdgeStyle;rounded=0;orthogonalLoop=1;jettySize=auto;html=1;entryX=0.578;entryY=1.253;entryDx=0;entryDy=0;entryPerimeter=0;" edge="1" parent="1" source="g5Xw9p57KfW_CXl-FN91-143" target="g5Xw9p57KfW_CXl-FN91-36">
          <mxGeometry relative="1" as="geometry">
            <Array as="points">
              <mxPoint x="920" y="1470" />
              <mxPoint x="920" y="760" />
              <mxPoint x="593" y="760" />
            </Array>
          </mxGeometry>
        </mxCell>
        <mxCell id="g5Xw9p57KfW_CXl-FN91-157" style="edgeStyle=orthogonalEdgeStyle;rounded=0;orthogonalLoop=1;jettySize=auto;html=1;entryX=0.169;entryY=1.312;entryDx=0;entryDy=0;entryPerimeter=0;exitX=0.782;exitY=-0.071;exitDx=0;exitDy=0;exitPerimeter=0;" edge="1" parent="1" source="g5Xw9p57KfW_CXl-FN91-152" target="g5Xw9p57KfW_CXl-FN91-86">
          <mxGeometry relative="1" as="geometry">
            <Array as="points">
              <mxPoint x="320" y="1530" />
              <mxPoint x="530" y="1530" />
              <mxPoint x="530" y="1300" />
              <mxPoint x="170" y="1300" />
            </Array>
          </mxGeometry>
        </mxCell>
        <mxCell id="g5Xw9p57KfW_CXl-FN91-151" value="" style="shape=table;startSize=0;container=1;collapsible=0;childLayout=tableLayout;fontSize=16;" vertex="1" parent="1">
          <mxGeometry x="136.5" y="1540" width="235" height="40" as="geometry" />
        </mxCell>
        <mxCell id="g5Xw9p57KfW_CXl-FN91-152" value="" style="shape=tableRow;horizontal=0;startSize=0;swimlaneHead=0;swimlaneBody=0;strokeColor=inherit;top=0;left=0;bottom=0;right=0;collapsible=0;dropTarget=0;fillColor=none;points=[[0,0.5],[1,0.5]];portConstraint=eastwest;fontSize=16;" vertex="1" parent="g5Xw9p57KfW_CXl-FN91-151">
          <mxGeometry width="235" height="40" as="geometry" />
        </mxCell>
        <mxCell id="g5Xw9p57KfW_CXl-FN91-153" value="PBarcode" style="shape=partialRectangle;html=1;whiteSpace=wrap;connectable=0;strokeColor=inherit;overflow=hidden;fillColor=none;top=0;left=0;bottom=0;right=0;pointerEvents=1;fontSize=16;fontStyle=4" vertex="1" parent="g5Xw9p57KfW_CXl-FN91-152">
          <mxGeometry width="118" height="40" as="geometry">
            <mxRectangle width="118" height="40" as="alternateBounds" />
          </mxGeometry>
        </mxCell>
        <mxCell id="g5Xw9p57KfW_CXl-FN91-154" value="&lt;u&gt;RecipeName&lt;/u&gt;" style="shape=partialRectangle;html=1;whiteSpace=wrap;connectable=0;strokeColor=inherit;overflow=hidden;fillColor=none;top=0;left=0;bottom=0;right=0;pointerEvents=1;fontSize=16;" vertex="1" parent="g5Xw9p57KfW_CXl-FN91-152">
          <mxGeometry x="118" width="117" height="40" as="geometry">
            <mxRectangle width="117" height="40" as="alternateBounds" />
          </mxGeometry>
        </mxCell>
        <mxCell id="g5Xw9p57KfW_CXl-FN91-155" value="Requires" style="text;html=1;strokeColor=none;fillColor=none;align=center;verticalAlign=middle;whiteSpace=wrap;rounded=0;" vertex="1" parent="1">
          <mxGeometry x="136.5" y="1510" width="60" height="30" as="geometry" />
        </mxCell>
        <mxCell id="g5Xw9p57KfW_CXl-FN91-156" style="edgeStyle=orthogonalEdgeStyle;rounded=0;orthogonalLoop=1;jettySize=auto;html=1;exitX=0.307;exitY=-0.041;exitDx=0;exitDy=0;exitPerimeter=0;" edge="1" parent="1" source="g5Xw9p57KfW_CXl-FN91-152">
          <mxGeometry relative="1" as="geometry">
            <mxPoint x="600" y="1010" as="targetPoint" />
            <Array as="points">
              <mxPoint x="209" y="1510" />
              <mxPoint x="970" y="1510" />
              <mxPoint x="970" y="1060" />
              <mxPoint x="600" y="1060" />
            </Array>
          </mxGeometry>
        </mxCell>
        <mxCell id="g5Xw9p57KfW_CXl-FN91-178" style="edgeStyle=orthogonalEdgeStyle;rounded=0;orthogonalLoop=1;jettySize=auto;html=1;exitX=0.486;exitY=1.022;exitDx=0;exitDy=0;exitPerimeter=0;" edge="1" parent="1" source="g5Xw9p57KfW_CXl-FN91-172">
          <mxGeometry relative="1" as="geometry">
            <mxPoint x="750" y="290" as="targetPoint" />
            <Array as="points">
              <mxPoint x="308" y="160" />
              <mxPoint x="751" y="160" />
              <mxPoint x="751" y="290" />
            </Array>
          </mxGeometry>
        </mxCell>
        <mxCell id="g5Xw9p57KfW_CXl-FN91-171" value="" style="shape=table;startSize=0;container=1;collapsible=0;childLayout=tableLayout;fontSize=16;" vertex="1" parent="1">
          <mxGeometry x="136.5" y="90" width="352" height="40" as="geometry" />
        </mxCell>
        <mxCell id="g5Xw9p57KfW_CXl-FN91-172" value="" style="shape=tableRow;horizontal=0;startSize=0;swimlaneHead=0;swimlaneBody=0;strokeColor=inherit;top=0;left=0;bottom=0;right=0;collapsible=0;dropTarget=0;fillColor=none;points=[[0,0.5],[1,0.5]];portConstraint=eastwest;fontSize=16;" vertex="1" parent="g5Xw9p57KfW_CXl-FN91-171">
          <mxGeometry width="352" height="40" as="geometry" />
        </mxCell>
        <mxCell id="g5Xw9p57KfW_CXl-FN91-173" value="CreditNumber" style="shape=partialRectangle;html=1;whiteSpace=wrap;connectable=0;strokeColor=inherit;overflow=hidden;fillColor=none;top=0;left=0;bottom=0;right=0;pointerEvents=1;fontSize=16;fontStyle=4" vertex="1" parent="g5Xw9p57KfW_CXl-FN91-172">
          <mxGeometry width="118" height="40" as="geometry">
            <mxRectangle width="118" height="40" as="alternateBounds" />
          </mxGeometry>
        </mxCell>
        <mxCell id="g5Xw9p57KfW_CXl-FN91-174" value="&lt;u&gt;PaymentType&lt;/u&gt;" style="shape=partialRectangle;html=1;whiteSpace=wrap;connectable=0;strokeColor=inherit;overflow=hidden;fillColor=none;top=0;left=0;bottom=0;right=0;pointerEvents=1;fontSize=16;" vertex="1" parent="g5Xw9p57KfW_CXl-FN91-172">
          <mxGeometry x="118" width="117" height="40" as="geometry">
            <mxRectangle width="117" height="40" as="alternateBounds" />
          </mxGeometry>
        </mxCell>
        <mxCell id="g5Xw9p57KfW_CXl-FN91-175" value="&lt;u&gt;Email&lt;/u&gt;" style="shape=partialRectangle;html=1;whiteSpace=wrap;connectable=0;strokeColor=inherit;overflow=hidden;fillColor=none;top=0;left=0;bottom=0;right=0;pointerEvents=1;fontSize=16;" vertex="1" parent="g5Xw9p57KfW_CXl-FN91-172">
          <mxGeometry x="235" width="117" height="40" as="geometry">
            <mxRectangle width="117" height="40" as="alternateBounds" />
          </mxGeometry>
        </mxCell>
        <mxCell id="g5Xw9p57KfW_CXl-FN91-176" value="Pays_With" style="text;html=1;strokeColor=none;fillColor=none;align=center;verticalAlign=middle;whiteSpace=wrap;rounded=0;" vertex="1" parent="1">
          <mxGeometry x="136.5" y="70" width="60" height="30" as="geometry" />
        </mxCell>
        <mxCell id="g5Xw9p57KfW_CXl-FN91-177" style="edgeStyle=orthogonalEdgeStyle;rounded=0;orthogonalLoop=1;jettySize=auto;html=1;exitX=0.845;exitY=1.078;exitDx=0;exitDy=0;exitPerimeter=0;" edge="1" parent="1" source="g5Xw9p57KfW_CXl-FN91-172">
          <mxGeometry relative="1" as="geometry">
            <mxPoint x="360" y="190" as="targetPoint" />
            <Array as="points">
              <mxPoint x="434" y="140" />
              <mxPoint x="360" y="140" />
              <mxPoint x="360" y="160" />
              <mxPoint x="361" y="190" />
            </Array>
          </mxGeometry>
        </mxCell>
        <mxCell id="g5Xw9p57KfW_CXl-FN91-179" style="edgeStyle=orthogonalEdgeStyle;rounded=0;orthogonalLoop=1;jettySize=auto;html=1;exitX=0.154;exitY=1.078;exitDx=0;exitDy=0;exitPerimeter=0;" edge="1" parent="1" source="g5Xw9p57KfW_CXl-FN91-172">
          <mxGeometry relative="1" as="geometry">
            <mxPoint x="570" y="290" as="targetPoint" />
            <Array as="points">
              <mxPoint x="191" y="170" />
              <mxPoint x="571" y="170" />
              <mxPoint x="571" y="290" />
            </Array>
          </mxGeometry>
        </mxCell>
        <mxCell id="g5Xw9p57KfW_CXl-FN91-188" style="edgeStyle=orthogonalEdgeStyle;rounded=0;orthogonalLoop=1;jettySize=auto;html=1;exitX=0.269;exitY=0.944;exitDx=0;exitDy=0;exitPerimeter=0;" edge="1" parent="1" source="g5Xw9p57KfW_CXl-FN91-181">
          <mxGeometry relative="1" as="geometry">
            <mxPoint x="530" y="470" as="targetPoint" />
            <Array as="points">
              <mxPoint x="193" y="60" />
              <mxPoint x="810" y="60" />
              <mxPoint x="810" y="440" />
              <mxPoint x="530" y="440" />
            </Array>
          </mxGeometry>
        </mxCell>
        <mxCell id="g5Xw9p57KfW_CXl-FN91-180" value="" style="shape=table;startSize=0;container=1;collapsible=0;childLayout=tableLayout;fontSize=16;" vertex="1" parent="1">
          <mxGeometry x="130" y="10" width="235" height="40" as="geometry" />
        </mxCell>
        <mxCell id="g5Xw9p57KfW_CXl-FN91-181" value="" style="shape=tableRow;horizontal=0;startSize=0;swimlaneHead=0;swimlaneBody=0;strokeColor=inherit;top=0;left=0;bottom=0;right=0;collapsible=0;dropTarget=0;fillColor=none;points=[[0,0.5],[1,0.5]];portConstraint=eastwest;fontSize=16;" vertex="1" parent="g5Xw9p57KfW_CXl-FN91-180">
          <mxGeometry width="235" height="40" as="geometry" />
        </mxCell>
        <mxCell id="g5Xw9p57KfW_CXl-FN91-182" value="AddressID" style="shape=partialRectangle;html=1;whiteSpace=wrap;connectable=0;strokeColor=inherit;overflow=hidden;fillColor=none;top=0;left=0;bottom=0;right=0;pointerEvents=1;fontSize=16;fontStyle=4" vertex="1" parent="g5Xw9p57KfW_CXl-FN91-181">
          <mxGeometry width="118" height="40" as="geometry">
            <mxRectangle width="118" height="40" as="alternateBounds" />
          </mxGeometry>
        </mxCell>
        <mxCell id="g5Xw9p57KfW_CXl-FN91-183" value="&lt;u&gt;Email&lt;/u&gt;" style="shape=partialRectangle;html=1;whiteSpace=wrap;connectable=0;strokeColor=inherit;overflow=hidden;fillColor=none;top=0;left=0;bottom=0;right=0;pointerEvents=1;fontSize=16;" vertex="1" parent="g5Xw9p57KfW_CXl-FN91-181">
          <mxGeometry x="118" width="117" height="40" as="geometry">
            <mxRectangle width="117" height="40" as="alternateBounds" />
          </mxGeometry>
        </mxCell>
        <mxCell id="g5Xw9p57KfW_CXl-FN91-185" value="RecivesOrder" style="text;html=1;strokeColor=none;fillColor=none;align=center;verticalAlign=middle;whiteSpace=wrap;rounded=0;" vertex="1" parent="1">
          <mxGeometry x="136.5" y="-30" width="60" height="30" as="geometry" />
        </mxCell>
        <mxCell id="g5Xw9p57KfW_CXl-FN91-186" style="edgeStyle=orthogonalEdgeStyle;rounded=0;orthogonalLoop=1;jettySize=auto;html=1;exitX=0.76;exitY=1.15;exitDx=0;exitDy=0;exitPerimeter=0;" edge="1" parent="1" source="g5Xw9p57KfW_CXl-FN91-181">
          <mxGeometry relative="1" as="geometry">
            <mxPoint x="350" y="190" as="targetPoint" />
            <Array as="points">
              <mxPoint x="309" y="70" />
              <mxPoint x="550" y="70" />
              <mxPoint x="550" y="150" />
              <mxPoint x="351" y="150" />
              <mxPoint x="351" y="190" />
            </Array>
          </mxGeometry>
        </mxCell>
        <mxCell id="g5Xw9p57KfW_CXl-FN91-198" value="Meat" style="text;html=1;strokeColor=none;fillColor=none;align=center;verticalAlign=middle;whiteSpace=wrap;rounded=0;" vertex="1" parent="1">
          <mxGeometry x="136.5" y="1600" width="60" height="30" as="geometry" />
        </mxCell>
        <mxCell id="g5Xw9p57KfW_CXl-FN91-214" value="" style="shape=table;startSize=0;container=1;collapsible=0;childLayout=tableLayout;fontSize=16;" vertex="1" parent="1">
          <mxGeometry x="136.5" y="1630" width="202" height="40" as="geometry" />
        </mxCell>
        <mxCell id="g5Xw9p57KfW_CXl-FN91-215" value="" style="shape=tableRow;horizontal=0;startSize=0;swimlaneHead=0;swimlaneBody=0;strokeColor=inherit;top=0;left=0;bottom=0;right=0;collapsible=0;dropTarget=0;fillColor=none;points=[[0,0.5],[1,0.5]];portConstraint=eastwest;fontSize=16;" vertex="1" parent="g5Xw9p57KfW_CXl-FN91-214">
          <mxGeometry width="202" height="40" as="geometry" />
        </mxCell>
        <mxCell id="g5Xw9p57KfW_CXl-FN91-216" value="PBarcode" style="shape=partialRectangle;html=1;whiteSpace=wrap;connectable=0;strokeColor=inherit;overflow=hidden;fillColor=none;top=0;left=0;bottom=0;right=0;pointerEvents=1;fontSize=16;" vertex="1" parent="g5Xw9p57KfW_CXl-FN91-215">
          <mxGeometry width="101" height="40" as="geometry">
            <mxRectangle width="101" height="40" as="alternateBounds" />
          </mxGeometry>
        </mxCell>
        <mxCell id="g5Xw9p57KfW_CXl-FN91-217" value="Animal" style="shape=partialRectangle;html=1;whiteSpace=wrap;connectable=0;strokeColor=inherit;overflow=hidden;fillColor=none;top=0;left=0;bottom=0;right=0;pointerEvents=1;fontSize=16;" vertex="1" parent="g5Xw9p57KfW_CXl-FN91-215">
          <mxGeometry x="101" width="101" height="40" as="geometry">
            <mxRectangle width="101" height="40" as="alternateBounds" />
          </mxGeometry>
        </mxCell>
        <mxCell id="g5Xw9p57KfW_CXl-FN91-221" value="Produce" style="text;html=1;strokeColor=none;fillColor=none;align=center;verticalAlign=middle;whiteSpace=wrap;rounded=0;" vertex="1" parent="1">
          <mxGeometry x="136.5" y="1690" width="60" height="30" as="geometry" />
        </mxCell>
        <mxCell id="g5Xw9p57KfW_CXl-FN91-222" value="" style="shape=table;startSize=0;container=1;collapsible=0;childLayout=tableLayout;fontSize=16;" vertex="1" parent="1">
          <mxGeometry x="136.5" y="1720" width="303" height="40" as="geometry" />
        </mxCell>
        <mxCell id="g5Xw9p57KfW_CXl-FN91-223" value="" style="shape=tableRow;horizontal=0;startSize=0;swimlaneHead=0;swimlaneBody=0;strokeColor=inherit;top=0;left=0;bottom=0;right=0;collapsible=0;dropTarget=0;fillColor=none;points=[[0,0.5],[1,0.5]];portConstraint=eastwest;fontSize=16;" vertex="1" parent="g5Xw9p57KfW_CXl-FN91-222">
          <mxGeometry width="303" height="40" as="geometry" />
        </mxCell>
        <mxCell id="g5Xw9p57KfW_CXl-FN91-224" value="PBarcode" style="shape=partialRectangle;html=1;whiteSpace=wrap;connectable=0;strokeColor=inherit;overflow=hidden;fillColor=none;top=0;left=0;bottom=0;right=0;pointerEvents=1;fontSize=16;" vertex="1" parent="g5Xw9p57KfW_CXl-FN91-223">
          <mxGeometry width="101" height="40" as="geometry">
            <mxRectangle width="101" height="40" as="alternateBounds" />
          </mxGeometry>
        </mxCell>
        <mxCell id="g5Xw9p57KfW_CXl-FN91-225" value="Name" style="shape=partialRectangle;html=1;whiteSpace=wrap;connectable=0;strokeColor=inherit;overflow=hidden;fillColor=none;top=0;left=0;bottom=0;right=0;pointerEvents=1;fontSize=16;" vertex="1" parent="g5Xw9p57KfW_CXl-FN91-223">
          <mxGeometry x="101" width="101" height="40" as="geometry">
            <mxRectangle width="101" height="40" as="alternateBounds" />
          </mxGeometry>
        </mxCell>
        <mxCell id="g5Xw9p57KfW_CXl-FN91-226" value="Organic?" style="shape=partialRectangle;html=1;whiteSpace=wrap;connectable=0;strokeColor=inherit;overflow=hidden;fillColor=none;top=0;left=0;bottom=0;right=0;pointerEvents=1;fontSize=16;" vertex="1" parent="g5Xw9p57KfW_CXl-FN91-223">
          <mxGeometry x="202" width="101" height="40" as="geometry">
            <mxRectangle width="101" height="40" as="alternateBounds" />
          </mxGeometry>
        </mxCell>
        <mxCell id="g5Xw9p57KfW_CXl-FN91-227" value="Personal_Hygeine" style="text;html=1;strokeColor=none;fillColor=none;align=center;verticalAlign=middle;whiteSpace=wrap;rounded=0;" vertex="1" parent="1">
          <mxGeometry x="140" y="1790" width="60" height="30" as="geometry" />
        </mxCell>
        <mxCell id="g5Xw9p57KfW_CXl-FN91-250" style="edgeStyle=orthogonalEdgeStyle;rounded=0;orthogonalLoop=1;jettySize=auto;html=1;entryX=0.952;entryY=1.402;entryDx=0;entryDy=0;entryPerimeter=0;" edge="1" parent="1" source="g5Xw9p57KfW_CXl-FN91-229" target="g5Xw9p57KfW_CXl-FN91-59">
          <mxGeometry relative="1" as="geometry">
            <Array as="points">
              <mxPoint x="226" y="1870" />
              <mxPoint x="960" y="1870" />
              <mxPoint x="960" y="1016" />
            </Array>
          </mxGeometry>
        </mxCell>
        <mxCell id="g5Xw9p57KfW_CXl-FN91-228" value="" style="shape=table;startSize=0;container=1;collapsible=0;childLayout=tableLayout;fontSize=16;" vertex="1" parent="1">
          <mxGeometry x="125" y="1820" width="202" height="40" as="geometry" />
        </mxCell>
        <mxCell id="g5Xw9p57KfW_CXl-FN91-229" value="" style="shape=tableRow;horizontal=0;startSize=0;swimlaneHead=0;swimlaneBody=0;strokeColor=inherit;top=0;left=0;bottom=0;right=0;collapsible=0;dropTarget=0;fillColor=none;points=[[0,0.5],[1,0.5]];portConstraint=eastwest;fontSize=16;" vertex="1" parent="g5Xw9p57KfW_CXl-FN91-228">
          <mxGeometry width="202" height="40" as="geometry" />
        </mxCell>
        <mxCell id="g5Xw9p57KfW_CXl-FN91-230" value="PBarcode" style="shape=partialRectangle;html=1;whiteSpace=wrap;connectable=0;strokeColor=inherit;overflow=hidden;fillColor=none;top=0;left=0;bottom=0;right=0;pointerEvents=1;fontSize=16;" vertex="1" parent="g5Xw9p57KfW_CXl-FN91-229">
          <mxGeometry width="101" height="40" as="geometry">
            <mxRectangle width="101" height="40" as="alternateBounds" />
          </mxGeometry>
        </mxCell>
        <mxCell id="g5Xw9p57KfW_CXl-FN91-231" value="Scent" style="shape=partialRectangle;html=1;whiteSpace=wrap;connectable=0;strokeColor=inherit;overflow=hidden;fillColor=none;top=0;left=0;bottom=0;right=0;pointerEvents=1;fontSize=16;" vertex="1" parent="g5Xw9p57KfW_CXl-FN91-229">
          <mxGeometry x="101" width="101" height="40" as="geometry">
            <mxRectangle width="101" height="40" as="alternateBounds" />
          </mxGeometry>
        </mxCell>
        <mxCell id="g5Xw9p57KfW_CXl-FN91-232" value="Confectionary" style="text;html=1;strokeColor=none;fillColor=none;align=center;verticalAlign=middle;whiteSpace=wrap;rounded=0;" vertex="1" parent="1">
          <mxGeometry x="145" y="1890" width="60" height="30" as="geometry" />
        </mxCell>
        <mxCell id="g5Xw9p57KfW_CXl-FN91-233" value="" style="shape=table;startSize=0;container=1;collapsible=0;childLayout=tableLayout;fontSize=16;" vertex="1" parent="1">
          <mxGeometry x="130" y="1920" width="202" height="40" as="geometry" />
        </mxCell>
        <mxCell id="g5Xw9p57KfW_CXl-FN91-234" value="" style="shape=tableRow;horizontal=0;startSize=0;swimlaneHead=0;swimlaneBody=0;strokeColor=inherit;top=0;left=0;bottom=0;right=0;collapsible=0;dropTarget=0;fillColor=none;points=[[0,0.5],[1,0.5]];portConstraint=eastwest;fontSize=16;" vertex="1" parent="g5Xw9p57KfW_CXl-FN91-233">
          <mxGeometry width="202" height="40" as="geometry" />
        </mxCell>
        <mxCell id="g5Xw9p57KfW_CXl-FN91-235" value="PBarcode" style="shape=partialRectangle;html=1;whiteSpace=wrap;connectable=0;strokeColor=inherit;overflow=hidden;fillColor=none;top=0;left=0;bottom=0;right=0;pointerEvents=1;fontSize=16;" vertex="1" parent="g5Xw9p57KfW_CXl-FN91-234">
          <mxGeometry width="101" height="40" as="geometry">
            <mxRectangle width="101" height="40" as="alternateBounds" />
          </mxGeometry>
        </mxCell>
        <mxCell id="g5Xw9p57KfW_CXl-FN91-236" value="Type" style="shape=partialRectangle;html=1;whiteSpace=wrap;connectable=0;strokeColor=inherit;overflow=hidden;fillColor=none;top=0;left=0;bottom=0;right=0;pointerEvents=1;fontSize=16;" vertex="1" parent="g5Xw9p57KfW_CXl-FN91-234">
          <mxGeometry x="101" width="101" height="40" as="geometry">
            <mxRectangle width="101" height="40" as="alternateBounds" />
          </mxGeometry>
        </mxCell>
        <mxCell id="g5Xw9p57KfW_CXl-FN91-237" value="Medicinal" style="text;html=1;strokeColor=none;fillColor=none;align=center;verticalAlign=middle;whiteSpace=wrap;rounded=0;" vertex="1" parent="1">
          <mxGeometry x="120" y="1980" width="60" height="30" as="geometry" />
        </mxCell>
        <mxCell id="g5Xw9p57KfW_CXl-FN91-238" value="" style="shape=table;startSize=0;container=1;collapsible=0;childLayout=tableLayout;fontSize=16;" vertex="1" parent="1">
          <mxGeometry x="120" y="2010" width="420" height="40" as="geometry" />
        </mxCell>
        <mxCell id="g5Xw9p57KfW_CXl-FN91-239" value="" style="shape=tableRow;horizontal=0;startSize=0;swimlaneHead=0;swimlaneBody=0;strokeColor=inherit;top=0;left=0;bottom=0;right=0;collapsible=0;dropTarget=0;fillColor=none;points=[[0,0.5],[1,0.5]];portConstraint=eastwest;fontSize=16;" vertex="1" parent="g5Xw9p57KfW_CXl-FN91-238">
          <mxGeometry width="420" height="40" as="geometry" />
        </mxCell>
        <mxCell id="g5Xw9p57KfW_CXl-FN91-240" value="PBarcode" style="shape=partialRectangle;html=1;whiteSpace=wrap;connectable=0;strokeColor=inherit;overflow=hidden;fillColor=none;top=0;left=0;bottom=0;right=0;pointerEvents=1;fontSize=16;" vertex="1" parent="g5Xw9p57KfW_CXl-FN91-239">
          <mxGeometry width="140" height="40" as="geometry">
            <mxRectangle width="140" height="40" as="alternateBounds" />
          </mxGeometry>
        </mxCell>
        <mxCell id="g5Xw9p57KfW_CXl-FN91-241" value="ActiveIngredient" style="shape=partialRectangle;html=1;whiteSpace=wrap;connectable=0;strokeColor=inherit;overflow=hidden;fillColor=none;top=0;left=0;bottom=0;right=0;pointerEvents=1;fontSize=16;" vertex="1" parent="g5Xw9p57KfW_CXl-FN91-239">
          <mxGeometry x="140" width="140" height="40" as="geometry">
            <mxRectangle width="140" height="40" as="alternateBounds" />
          </mxGeometry>
        </mxCell>
        <mxCell id="g5Xw9p57KfW_CXl-FN91-242" value="Dosage" style="shape=partialRectangle;html=1;whiteSpace=wrap;connectable=0;strokeColor=inherit;overflow=hidden;fillColor=none;top=0;left=0;bottom=0;right=0;pointerEvents=1;fontSize=16;" vertex="1" parent="g5Xw9p57KfW_CXl-FN91-239">
          <mxGeometry x="280" width="140" height="40" as="geometry">
            <mxRectangle width="140" height="40" as="alternateBounds" />
          </mxGeometry>
        </mxCell>
        <mxCell id="g5Xw9p57KfW_CXl-FN91-243" value="Dairy" style="text;html=1;strokeColor=none;fillColor=none;align=center;verticalAlign=middle;whiteSpace=wrap;rounded=0;" vertex="1" parent="1">
          <mxGeometry x="135" y="2070" width="60" height="30" as="geometry" />
        </mxCell>
        <mxCell id="g5Xw9p57KfW_CXl-FN91-253" style="edgeStyle=orthogonalEdgeStyle;rounded=0;orthogonalLoop=1;jettySize=auto;html=1;" edge="1" parent="1" source="g5Xw9p57KfW_CXl-FN91-245">
          <mxGeometry relative="1" as="geometry">
            <mxPoint x="620" y="1020" as="targetPoint" />
            <Array as="points">
              <mxPoint x="221" y="2090" />
              <mxPoint x="1030" y="2090" />
              <mxPoint x="1030" y="1020" />
            </Array>
          </mxGeometry>
        </mxCell>
        <mxCell id="g5Xw9p57KfW_CXl-FN91-244" value="" style="shape=table;startSize=0;container=1;collapsible=0;childLayout=tableLayout;fontSize=16;" vertex="1" parent="1">
          <mxGeometry x="120" y="2100" width="202" height="40" as="geometry" />
        </mxCell>
        <mxCell id="g5Xw9p57KfW_CXl-FN91-245" value="" style="shape=tableRow;horizontal=0;startSize=0;swimlaneHead=0;swimlaneBody=0;strokeColor=inherit;top=0;left=0;bottom=0;right=0;collapsible=0;dropTarget=0;fillColor=none;points=[[0,0.5],[1,0.5]];portConstraint=eastwest;fontSize=16;" vertex="1" parent="g5Xw9p57KfW_CXl-FN91-244">
          <mxGeometry width="202" height="40" as="geometry" />
        </mxCell>
        <mxCell id="g5Xw9p57KfW_CXl-FN91-246" value="PBarcode" style="shape=partialRectangle;html=1;whiteSpace=wrap;connectable=0;strokeColor=inherit;overflow=hidden;fillColor=none;top=0;left=0;bottom=0;right=0;pointerEvents=1;fontSize=16;" vertex="1" parent="g5Xw9p57KfW_CXl-FN91-245">
          <mxGeometry width="101" height="40" as="geometry">
            <mxRectangle width="101" height="40" as="alternateBounds" />
          </mxGeometry>
        </mxCell>
        <mxCell id="g5Xw9p57KfW_CXl-FN91-247" value="Category" style="shape=partialRectangle;html=1;whiteSpace=wrap;connectable=0;strokeColor=inherit;overflow=hidden;fillColor=none;top=0;left=0;bottom=0;right=0;pointerEvents=1;fontSize=16;" vertex="1" parent="g5Xw9p57KfW_CXl-FN91-245">
          <mxGeometry x="101" width="101" height="40" as="geometry">
            <mxRectangle width="101" height="40" as="alternateBounds" />
          </mxGeometry>
        </mxCell>
        <mxCell id="g5Xw9p57KfW_CXl-FN91-248" style="edgeStyle=orthogonalEdgeStyle;rounded=0;orthogonalLoop=1;jettySize=auto;html=1;entryX=0.921;entryY=1;entryDx=0;entryDy=0;entryPerimeter=0;exitX=0.279;exitY=0.107;exitDx=0;exitDy=0;exitPerimeter=0;" edge="1" parent="1" source="g5Xw9p57KfW_CXl-FN91-215" target="g5Xw9p57KfW_CXl-FN91-59">
          <mxGeometry relative="1" as="geometry">
            <Array as="points">
              <mxPoint x="193" y="1610" />
              <mxPoint x="1010" y="1610" />
              <mxPoint x="1010" y="1000" />
            </Array>
          </mxGeometry>
        </mxCell>
        <mxCell id="g5Xw9p57KfW_CXl-FN91-249" style="edgeStyle=orthogonalEdgeStyle;rounded=0;orthogonalLoop=1;jettySize=auto;html=1;exitX=0.21;exitY=0.175;exitDx=0;exitDy=0;exitPerimeter=0;" edge="1" parent="1" source="g5Xw9p57KfW_CXl-FN91-223">
          <mxGeometry relative="1" as="geometry">
            <mxPoint x="650" y="1010" as="targetPoint" />
            <Array as="points">
              <mxPoint x="200" y="1710" />
              <mxPoint x="990" y="1710" />
              <mxPoint x="990" y="1010" />
            </Array>
          </mxGeometry>
        </mxCell>
        <mxCell id="g5Xw9p57KfW_CXl-FN91-251" style="edgeStyle=orthogonalEdgeStyle;rounded=0;orthogonalLoop=1;jettySize=auto;html=1;exitX=0.248;exitY=0.857;exitDx=0;exitDy=0;exitPerimeter=0;" edge="1" parent="1" source="g5Xw9p57KfW_CXl-FN91-234">
          <mxGeometry relative="1" as="geometry">
            <mxPoint x="640" y="1000" as="targetPoint" />
            <Array as="points">
              <mxPoint x="180" y="1980" />
              <mxPoint x="1020" y="1980" />
              <mxPoint x="1020" y="1000" />
            </Array>
          </mxGeometry>
        </mxCell>
        <mxCell id="g5Xw9p57KfW_CXl-FN91-252" style="edgeStyle=orthogonalEdgeStyle;rounded=0;orthogonalLoop=1;jettySize=auto;html=1;exitX=0.221;exitY=-0.075;exitDx=0;exitDy=0;exitPerimeter=0;" edge="1" parent="1" source="g5Xw9p57KfW_CXl-FN91-239">
          <mxGeometry relative="1" as="geometry">
            <mxPoint x="620" y="1010" as="targetPoint" />
            <Array as="points">
              <mxPoint x="213" y="2000" />
              <mxPoint x="1040" y="2000" />
              <mxPoint x="1040" y="1010" />
            </Array>
          </mxGeometry>
        </mxCell>
      </root>
    </mxGraphModel>
  </diagram>
</mxfile>
